<?xml version="1.0" encoding="UTF-8" standalone="no"?>
<!-- Generator: Adobe Illustrator 19.0.0, SVG Export Plug-In . SVG Version: 6.00 Build 0)  -->

<svg
   xmlns:dc="http://purl.org/dc/elements/1.1/"
   xmlns:cc="http://creativecommons.org/ns#"
   xmlns:rdf="http://www.w3.org/1999/02/22-rdf-syntax-ns#"
   xmlns:svg="http://www.w3.org/2000/svg"
   xmlns="http://www.w3.org/2000/svg"
   xmlns:sodipodi="http://sodipodi.sourceforge.net/DTD/sodipodi-0.dtd"
   xmlns:inkscape="http://www.inkscape.org/namespaces/inkscape"
   version="1.1"
   id="Capa_1"
   x="0px"
   y="0px"
   viewBox="0 0 512 512"
   style="enable-background:new 0 0 512 512;"
   xml:space="preserve"
   sodipodi:docname="adjust.svg"
   inkscape:version="0.92.5 (2060ec1f9f, 2020-04-08)"><metadata
   id="metadata55"><rdf:RDF><cc:Work
       rdf:about=""><dc:format>image/svg+xml</dc:format><dc:type
         rdf:resource="http://purl.org/dc/dcmitype/StillImage" /></cc:Work></rdf:RDF></metadata><defs
   id="defs53" /><sodipodi:namedview
   pagecolor="#ffffff"
   bordercolor="#666666"
   borderopacity="1"
   objecttolerance="10"
   gridtolerance="10"
   guidetolerance="10"
   inkscape:pageopacity="0"
   inkscape:pageshadow="2"
   inkscape:window-width="640"
   inkscape:window-height="480"
   id="namedview51"
   showgrid="false"
   inkscape:zoom="0.4609375"
   inkscape:cx="256"
   inkscape:cy="256"
   inkscape:window-x="56"
   inkscape:window-y="0"
   inkscape:window-maximized="0"
   inkscape:current-layer="Capa_1" />
<g
   id="g6"
   style="fill:#b3b3b3">
	<g
   id="g4"
   style="fill:#b3b3b3">
		<polygon
   points="86.357,91.076 86.357,23.792 56.357,23.792 56.357,91.076 0,91.076 0,208.362 56.357,208.362 56.357,488.208     86.357,488.208 86.357,208.362 142.715,208.362 142.715,91.076   "
   id="polygon2"
   style="fill:#b3b3b3" />
	</g>
</g>
<g
   id="g12">
	<g
   id="g10">
		<polygon
   points="271,230.931 271,23.792 241,23.792 241,230.931 184.643,230.931 184.643,348.217 241,348.217 241,488.208     271,488.208 271,348.217 327.357,348.217 327.357,230.931   "
   id="polygon8"
   style="fill:#b3b3b3" />
	</g>
</g>
<g
   id="g18"
   style="fill:#b3b3b3">
	<g
   id="g16"
   style="fill:#b3b3b3">
		<polygon
   points="455.643,91.076 455.643,23.792 425.643,23.792 425.643,91.076 369.285,91.076 369.285,208.362 425.643,208.362     425.643,488.208 455.643,488.208 455.643,208.362 512,208.362 512,91.076   "
   id="polygon14"
   style="fill:#b3b3b3" />
	</g>
</g>
<g
   id="g20">
</g>
<g
   id="g22">
</g>
<g
   id="g24">
</g>
<g
   id="g26">
</g>
<g
   id="g28">
</g>
<g
   id="g30">
</g>
<g
   id="g32">
</g>
<g
   id="g34">
</g>
<g
   id="g36">
</g>
<g
   id="g38">
</g>
<g
   id="g40">
</g>
<g
   id="g42">
</g>
<g
   id="g44">
</g>
<g
   id="g46">
</g>
<g
   id="g48">
</g>
</svg>