<?xml version="1.0" encoding="UTF-8" standalone="no"?>
<!-- Generator: Adobe Illustrator 19.0.0, SVG Export Plug-In . SVG Version: 6.00 Build 0)  -->

<svg
   xmlns:dc="http://purl.org/dc/elements/1.1/"
   xmlns:cc="http://creativecommons.org/ns#"
   xmlns:rdf="http://www.w3.org/1999/02/22-rdf-syntax-ns#"
   xmlns:svg="http://www.w3.org/2000/svg"
   xmlns="http://www.w3.org/2000/svg"
   xmlns:sodipodi="http://sodipodi.sourceforge.net/DTD/sodipodi-0.dtd"
   xmlns:inkscape="http://www.inkscape.org/namespaces/inkscape"
   version="1.1"
   id="Capa_1"
   x="0px"
   y="0px"
   viewBox="0 0 424.449 424.449"
   style="enable-background:new 0 0 424.449 424.449;"
   xml:space="preserve"
   sodipodi:docname="shopping-cart.svg"
   inkscape:version="0.92.5 (2060ec1f9f, 2020-04-08)"><metadata
   id="metadata49"><rdf:RDF><cc:Work
       rdf:about=""><dc:format>image/svg+xml</dc:format><dc:type
         rdf:resource="http://purl.org/dc/dcmitype/StillImage" /></cc:Work></rdf:RDF></metadata><defs
   id="defs47" /><sodipodi:namedview
   pagecolor="#ffffff"
   bordercolor="#666666"
   borderopacity="1"
   objecttolerance="10"
   gridtolerance="10"
   guidetolerance="10"
   inkscape:pageopacity="0"
   inkscape:pageshadow="2"
   inkscape:window-width="640"
   inkscape:window-height="480"
   id="namedview45"
   showgrid="false"
   inkscape:zoom="0.55601497"
   inkscape:cx="212.2245"
   inkscape:cy="212.2245"
   inkscape:window-x="56"
   inkscape:window-y="0"
   inkscape:window-maximized="0"
   inkscape:current-layer="Capa_1" />
<g
   id="g12"
   style="fill:#b3b3b3">
	<g
   id="g10"
   style="fill:#b3b3b3">
		<g
   id="g8"
   style="fill:#b3b3b3">
			<circle
   cx="170.241"
   cy="374.273"
   r="50.176"
   id="circle2"
   style="fill:#b3b3b3" />
			<path
   d="M316.673,324.098L316.673,324.098c-27.711,0-50.176,22.465-50.176,50.176s22.465,50.176,50.176,50.176     c27.711,0,50.176-22.465,50.176-50.176S344.384,324.098,316.673,324.098z"
   id="path4"
   style="fill:#b3b3b3" />
			<path
   d="M402.177,272.897H140.545l-5.12-29.696h215.04c6.326,0.019,12.017-3.843,14.336-9.728l51.2-129.024     c3.111-7.892-0.766-16.812-8.658-19.922c-1.808-0.713-3.735-1.076-5.678-1.07H108.801L96.513,12.801     c-1.262-7.471-7.784-12.906-15.36-12.8h-58.88c-8.483,0-15.36,6.877-15.36,15.36s6.877,15.36,15.36,15.36h46.08l44.032,260.096     c1.262,7.471,7.784,12.906,15.36,12.8h274.432c8.483,0,15.36-6.877,15.36-15.36C417.537,279.774,410.66,272.897,402.177,272.897z     "
   id="path6"
   style="fill:#b3b3b3" />
		</g>
	</g>
</g>
<g
   id="g14">
</g>
<g
   id="g16">
</g>
<g
   id="g18">
</g>
<g
   id="g20">
</g>
<g
   id="g22">
</g>
<g
   id="g24">
</g>
<g
   id="g26">
</g>
<g
   id="g28">
</g>
<g
   id="g30">
</g>
<g
   id="g32">
</g>
<g
   id="g34">
</g>
<g
   id="g36">
</g>
<g
   id="g38">
</g>
<g
   id="g40">
</g>
<g
   id="g42">
</g>
</svg>